<?xml version="1.0" encoding="UTF-8"?><svg id="a" xmlns="http://www.w3.org/2000/svg" viewBox="0 0 314.55 314.55"><path d="M240.25,0H0V240.25c0,41.03,33.27,74.3,74.31,74.3h240.24V74.31C314.55,33.27,281.28,0,240.25,0Zm59.44,299.69l-71.33-134.73-71.33,134.73H74.31c-15.88,0-30.81-6.18-42.03-17.41-11.23-11.22-17.42-26.15-17.42-42.03v-75.29H299.69v134.73Zm0-149.59H14.86V14.86L85.95,150.1,157.03,14.86h83.22c15.88,0,30.81,6.19,42.03,17.42,11.23,11.22,17.41,26.15,17.41,42.03v75.79Z"/><path d="M119.88,232.32c0,18.61-15.08,33.69-33.69,33.69s-33.68-15.08-33.68-33.69,15.08-33.68,33.68-33.68,33.69,15.08,33.69,33.68Z"/><path d="M262.04,82.73c0,18.6-15.07,33.68-33.68,33.68s-33.68-15.08-33.68-33.68,15.08-33.69,33.68-33.69,33.68,15.08,33.68,33.69Z"/></svg>